solid tupan
facet normal 0.0000 0.0000 1.0000
 outer loop
  vertex 1.00 4.00 16.00
  vertex 4.00 4.00 16.00
  vertex 4.00 18.00 16.00
 endloop
endfacet
facet normal 0.0000 0.0000 1.0000
 outer loop
  vertex 1.00 4.00 16.00
  vertex 4.00 18.00 16.00
  vertex 1.00 18.00 16.00
 endloop
endfacet
facet normal 0.0000 0.0000 1.0000
 outer loop
  vertex 1.00 4.00 26.00
  vertex 4.00 4.00 26.00
  vertex 4.00 18.00 26.00
 endloop
endfacet
facet normal 0.0000 0.0000 1.0000
 outer loop
  vertex 1.00 4.00 26.00
  vertex 4.00 18.00 26.00
  vertex 1.00 18.00 26.00
 endloop
endfacet
facet normal 0.0000 -1.0000 0.0000
 outer loop
  vertex 1.00 4.00 16.00
  vertex 4.00 4.00 16.00
  vertex 4.00 4.00 26.00
 endloop
endfacet
facet normal 0.0000 -1.0000 0.0000
 outer loop
  vertex 1.00 4.00 16.00
  vertex 4.00 4.00 26.00
  vertex 1.00 4.00 26.00
 endloop
endfacet
facet normal 0.0000 1.0000 0.0000
 outer loop
  vertex 4.00 18.00 16.00
  vertex 1.00 18.00 16.00
  vertex 1.00 18.00 26.00
 endloop
endfacet
facet normal 0.0000 1.0000 -0.0000
 outer loop
  vertex 4.00 18.00 16.00
  vertex 1.00 18.00 26.00
  vertex 4.00 18.00 26.00
 endloop
endfacet
facet normal 1.0000 0.0000 0.0000
 outer loop
  vertex 4.00 4.00 16.00
  vertex 4.00 18.00 16.00
  vertex 4.00 18.00 26.00
 endloop
endfacet
facet normal 1.0000 0.0000 0.0000
 outer loop
  vertex 4.00 4.00 16.00
  vertex 4.00 18.00 26.00
  vertex 4.00 4.00 26.00
 endloop
endfacet
facet normal -1.0000 0.0000 0.0000
 outer loop
  vertex 1.00 18.00 16.00
  vertex 1.00 4.00 16.00
  vertex 1.00 4.00 26.00
 endloop
endfacet
facet normal -1.0000 0.0000 0.0000
 outer loop
  vertex 1.00 18.00 16.00
  vertex 1.00 4.00 26.00
  vertex 1.00 18.00 26.00
 endloop
endfacet
facet normal 0.0000 0.0000 1.0000
 outer loop
  vertex 5.00 3.00 8.00
  vertex 21.00 3.00 8.00
  vertex 21.00 19.00 8.00
 endloop
endfacet
facet normal 0.0000 0.0000 1.0000
 outer loop
  vertex 5.00 3.00 8.00
  vertex 21.00 19.00 8.00
  vertex 5.00 19.00 8.00
 endloop
endfacet
facet normal 0.0000 0.0000 1.0000
 outer loop
  vertex 5.00 3.00 20.00
  vertex 21.00 3.00 20.00
  vertex 21.00 19.00 20.00
 endloop
endfacet
facet normal 0.0000 0.0000 1.0000
 outer loop
  vertex 5.00 3.00 20.00
  vertex 21.00 19.00 20.00
  vertex 5.00 19.00 20.00
 endloop
endfacet
facet normal 0.0000 -1.0000 0.0000
 outer loop
  vertex 5.00 3.00 8.00
  vertex 21.00 3.00 8.00
  vertex 21.00 3.00 20.00
 endloop
endfacet
facet normal 0.0000 -1.0000 0.0000
 outer loop
  vertex 5.00 3.00 8.00
  vertex 21.00 3.00 20.00
  vertex 5.00 3.00 20.00
 endloop
endfacet
facet normal 0.0000 1.0000 0.0000
 outer loop
  vertex 21.00 19.00 8.00
  vertex 5.00 19.00 8.00
  vertex 5.00 19.00 20.00
 endloop
endfacet
facet normal 0.0000 1.0000 -0.0000
 outer loop
  vertex 21.00 19.00 8.00
  vertex 5.00 19.00 20.00
  vertex 21.00 19.00 20.00
 endloop
endfacet
facet normal 1.0000 0.0000 0.0000
 outer loop
  vertex 21.00 3.00 8.00
  vertex 21.00 19.00 8.00
  vertex 21.00 19.00 20.00
 endloop
endfacet
facet normal 1.0000 0.0000 0.0000
 outer loop
  vertex 21.00 3.00 8.00
  vertex 21.00 19.00 20.00
  vertex 21.00 3.00 20.00
 endloop
endfacet
facet normal -1.0000 0.0000 0.0000
 outer loop
  vertex 5.00 19.00 8.00
  vertex 5.00 3.00 8.00
  vertex 5.00 3.00 20.00
 endloop
endfacet
facet normal -1.0000 0.0000 0.0000
 outer loop
  vertex 5.00 19.00 8.00
  vertex 5.00 3.00 20.00
  vertex 5.00 19.00 20.00
 endloop
endfacet
facet normal 0.0000 0.0000 1.0000
 outer loop
  vertex 10.00 6.00 20.00
  vertex 20.00 6.00 20.00
  vertex 20.00 16.00 20.00
 endloop
endfacet
facet normal 0.0000 0.0000 1.0000
 outer loop
  vertex 10.00 6.00 20.00
  vertex 20.00 16.00 20.00
  vertex 10.00 16.00 20.00
 endloop
endfacet
facet normal 0.0000 0.0000 1.0000
 outer loop
  vertex 10.00 6.00 32.00
  vertex 20.00 6.00 32.00
  vertex 20.00 16.00 32.00
 endloop
endfacet
facet normal 0.0000 0.0000 1.0000
 outer loop
  vertex 10.00 6.00 32.00
  vertex 20.00 16.00 32.00
  vertex 10.00 16.00 32.00
 endloop
endfacet
facet normal 0.0000 -1.0000 0.0000
 outer loop
  vertex 10.00 6.00 20.00
  vertex 20.00 6.00 20.00
  vertex 20.00 6.00 32.00
 endloop
endfacet
facet normal 0.0000 -1.0000 0.0000
 outer loop
  vertex 10.00 6.00 20.00
  vertex 20.00 6.00 32.00
  vertex 10.00 6.00 32.00
 endloop
endfacet
facet normal 0.0000 1.0000 0.0000
 outer loop
  vertex 20.00 16.00 20.00
  vertex 10.00 16.00 20.00
  vertex 10.00 16.00 32.00
 endloop
endfacet
facet normal 0.0000 1.0000 -0.0000
 outer loop
  vertex 20.00 16.00 20.00
  vertex 10.00 16.00 32.00
  vertex 20.00 16.00 32.00
 endloop
endfacet
facet normal 1.0000 0.0000 0.0000
 outer loop
  vertex 20.00 6.00 20.00
  vertex 20.00 16.00 20.00
  vertex 20.00 16.00 32.00
 endloop
endfacet
facet normal 1.0000 0.0000 0.0000
 outer loop
  vertex 20.00 6.00 20.00
  vertex 20.00 16.00 32.00
  vertex 20.00 6.00 32.00
 endloop
endfacet
facet normal -1.0000 0.0000 0.0000
 outer loop
  vertex 10.00 16.00 20.00
  vertex 10.00 6.00 20.00
  vertex 10.00 6.00 32.00
 endloop
endfacet
facet normal -1.0000 0.0000 0.0000
 outer loop
  vertex 10.00 16.00 20.00
  vertex 10.00 6.00 32.00
  vertex 10.00 16.00 32.00
 endloop
endfacet
facet normal 0.0000 0.0000 1.0000
 outer loop
  vertex 8.00 9.00 6.00
  vertex 24.00 9.00 6.00
  vertex 24.00 13.00 6.00
 endloop
endfacet
facet normal 0.0000 0.0000 1.0000
 outer loop
  vertex 8.00 9.00 6.00
  vertex 24.00 13.00 6.00
  vertex 8.00 13.00 6.00
 endloop
endfacet
facet normal 0.0000 0.0000 1.0000
 outer loop
  vertex 8.00 9.00 8.00
  vertex 24.00 9.00 8.00
  vertex 24.00 13.00 8.00
 endloop
endfacet
facet normal 0.0000 0.0000 1.0000
 outer loop
  vertex 8.00 9.00 8.00
  vertex 24.00 13.00 8.00
  vertex 8.00 13.00 8.00
 endloop
endfacet
facet normal 0.0000 -1.0000 0.0000
 outer loop
  vertex 8.00 9.00 6.00
  vertex 24.00 9.00 6.00
  vertex 24.00 9.00 8.00
 endloop
endfacet
facet normal 0.0000 -1.0000 0.0000
 outer loop
  vertex 8.00 9.00 6.00
  vertex 24.00 9.00 8.00
  vertex 8.00 9.00 8.00
 endloop
endfacet
facet normal 0.0000 1.0000 0.0000
 outer loop
  vertex 24.00 13.00 6.00
  vertex 8.00 13.00 6.00
  vertex 8.00 13.00 8.00
 endloop
endfacet
facet normal 0.0000 1.0000 -0.0000
 outer loop
  vertex 24.00 13.00 6.00
  vertex 8.00 13.00 8.00
  vertex 24.00 13.00 8.00
 endloop
endfacet
facet normal 1.0000 0.0000 0.0000
 outer loop
  vertex 24.00 9.00 6.00
  vertex 24.00 13.00 6.00
  vertex 24.00 13.00 8.00
 endloop
endfacet
facet normal 1.0000 0.0000 0.0000
 outer loop
  vertex 24.00 9.00 6.00
  vertex 24.00 13.00 8.00
  vertex 24.00 9.00 8.00
 endloop
endfacet
facet normal -1.0000 0.0000 0.0000
 outer loop
  vertex 8.00 13.00 6.00
  vertex 8.00 9.00 6.00
  vertex 8.00 9.00 8.00
 endloop
endfacet
facet normal -1.0000 0.0000 0.0000
 outer loop
  vertex 8.00 13.00 6.00
  vertex 8.00 9.00 8.00
  vertex 8.00 13.00 8.00
 endloop
endfacet
facet normal 0.0000 0.0000 1.0000
 outer loop
  vertex 22.00 8.00 8.00
  vertex 27.00 8.00 8.00
  vertex 27.00 13.00 8.00
 endloop
endfacet
facet normal 0.0000 0.0000 1.0000
 outer loop
  vertex 22.00 8.00 8.00
  vertex 27.00 13.00 8.00
  vertex 22.00 13.00 8.00
 endloop
endfacet
facet normal 0.0000 0.0000 1.0000
 outer loop
  vertex 22.00 8.00 17.00
  vertex 27.00 8.00 17.00
  vertex 27.00 13.00 17.00
 endloop
endfacet
facet normal 0.0000 0.0000 1.0000
 outer loop
  vertex 22.00 8.00 17.00
  vertex 27.00 13.00 17.00
  vertex 22.00 13.00 17.00
 endloop
endfacet
facet normal 0.0000 -1.0000 0.0000
 outer loop
  vertex 22.00 8.00 8.00
  vertex 27.00 8.00 8.00
  vertex 27.00 8.00 17.00
 endloop
endfacet
facet normal 0.0000 -1.0000 0.0000
 outer loop
  vertex 22.00 8.00 8.00
  vertex 27.00 8.00 17.00
  vertex 22.00 8.00 17.00
 endloop
endfacet
facet normal 0.0000 1.0000 0.0000
 outer loop
  vertex 27.00 13.00 8.00
  vertex 22.00 13.00 8.00
  vertex 22.00 13.00 17.00
 endloop
endfacet
facet normal 0.0000 1.0000 -0.0000
 outer loop
  vertex 27.00 13.00 8.00
  vertex 22.00 13.00 17.00
  vertex 27.00 13.00 17.00
 endloop
endfacet
facet normal 1.0000 0.0000 0.0000
 outer loop
  vertex 27.00 8.00 8.00
  vertex 27.00 13.00 8.00
  vertex 27.00 13.00 17.00
 endloop
endfacet
facet normal 1.0000 0.0000 0.0000
 outer loop
  vertex 27.00 8.00 8.00
  vertex 27.00 13.00 17.00
  vertex 27.00 8.00 17.00
 endloop
endfacet
facet normal -1.0000 0.0000 0.0000
 outer loop
  vertex 22.00 13.00 8.00
  vertex 22.00 8.00 8.00
  vertex 22.00 8.00 17.00
 endloop
endfacet
facet normal -1.0000 0.0000 0.0000
 outer loop
  vertex 22.00 13.00 8.00
  vertex 22.00 8.00 17.00
  vertex 22.00 13.00 17.00
 endloop
endfacet
facet normal 0.0000 0.0000 1.0000
 outer loop
  vertex 27.00 6.00 4.00
  vertex 39.00 6.00 4.00
  vertex 39.00 16.00 4.00
 endloop
endfacet
facet normal 0.0000 0.0000 1.0000
 outer loop
  vertex 27.00 6.00 4.00
  vertex 39.00 16.00 4.00
  vertex 27.00 16.00 4.00
 endloop
endfacet
facet normal 0.0000 0.0000 1.0000
 outer loop
  vertex 27.00 6.00 12.00
  vertex 39.00 6.00 12.00
  vertex 39.00 16.00 12.00
 endloop
endfacet
facet normal 0.0000 0.0000 1.0000
 outer loop
  vertex 27.00 6.00 12.00
  vertex 39.00 16.00 12.00
  vertex 27.00 16.00 12.00
 endloop
endfacet
facet normal 0.0000 -1.0000 0.0000
 outer loop
  vertex 27.00 6.00 4.00
  vertex 39.00 6.00 4.00
  vertex 39.00 6.00 12.00
 endloop
endfacet
facet normal 0.0000 -1.0000 0.0000
 outer loop
  vertex 27.00 6.00 4.00
  vertex 39.00 6.00 12.00
  vertex 27.00 6.00 12.00
 endloop
endfacet
facet normal 0.0000 1.0000 0.0000
 outer loop
  vertex 39.00 16.00 4.00
  vertex 27.00 16.00 4.00
  vertex 27.00 16.00 12.00
 endloop
endfacet
facet normal 0.0000 1.0000 -0.0000
 outer loop
  vertex 39.00 16.00 4.00
  vertex 27.00 16.00 12.00
  vertex 39.00 16.00 12.00
 endloop
endfacet
facet normal 1.0000 0.0000 0.0000
 outer loop
  vertex 39.00 6.00 4.00
  vertex 39.00 16.00 4.00
  vertex 39.00 16.00 12.00
 endloop
endfacet
facet normal 1.0000 0.0000 0.0000
 outer loop
  vertex 39.00 6.00 4.00
  vertex 39.00 16.00 12.00
  vertex 39.00 6.00 12.00
 endloop
endfacet
facet normal -1.0000 0.0000 0.0000
 outer loop
  vertex 27.00 16.00 4.00
  vertex 27.00 6.00 4.00
  vertex 27.00 6.00 12.00
 endloop
endfacet
facet normal -1.0000 0.0000 0.0000
 outer loop
  vertex 27.00 16.00 4.00
  vertex 27.00 6.00 12.00
  vertex 27.00 16.00 12.00
 endloop
endfacet
facet normal 0.0000 0.0000 1.0000
 outer loop
  vertex 5.00 0.50 26.00
  vertex 17.00 0.50 26.00
  vertex 17.00 6.50 26.00
 endloop
endfacet
facet normal 0.0000 0.0000 1.0000
 outer loop
  vertex 5.00 0.50 26.00
  vertex 17.00 6.50 26.00
  vertex 5.00 6.50 26.00
 endloop
endfacet
facet normal 0.0000 0.0000 1.0000
 outer loop
  vertex 5.00 0.50 29.00
  vertex 17.00 0.50 29.00
  vertex 17.00 6.50 29.00
 endloop
endfacet
facet normal 0.0000 0.0000 1.0000
 outer loop
  vertex 5.00 0.50 29.00
  vertex 17.00 6.50 29.00
  vertex 5.00 6.50 29.00
 endloop
endfacet
facet normal 0.0000 -1.0000 0.0000
 outer loop
  vertex 5.00 0.50 26.00
  vertex 17.00 0.50 26.00
  vertex 17.00 0.50 29.00
 endloop
endfacet
facet normal 0.0000 -1.0000 0.0000
 outer loop
  vertex 5.00 0.50 26.00
  vertex 17.00 0.50 29.00
  vertex 5.00 0.50 29.00
 endloop
endfacet
facet normal 0.0000 1.0000 0.0000
 outer loop
  vertex 17.00 6.50 26.00
  vertex 5.00 6.50 26.00
  vertex 5.00 6.50 29.00
 endloop
endfacet
facet normal 0.0000 1.0000 -0.0000
 outer loop
  vertex 17.00 6.50 26.00
  vertex 5.00 6.50 29.00
  vertex 17.00 6.50 29.00
 endloop
endfacet
facet normal 1.0000 0.0000 0.0000
 outer loop
  vertex 17.00 0.50 26.00
  vertex 17.00 6.50 26.00
  vertex 17.00 6.50 29.00
 endloop
endfacet
facet normal 1.0000 0.0000 0.0000
 outer loop
  vertex 17.00 0.50 26.00
  vertex 17.00 6.50 29.00
  vertex 17.00 0.50 29.00
 endloop
endfacet
facet normal -1.0000 0.0000 0.0000
 outer loop
  vertex 5.00 6.50 26.00
  vertex 5.00 0.50 26.00
  vertex 5.00 0.50 29.00
 endloop
endfacet
facet normal -1.0000 0.0000 0.0000
 outer loop
  vertex 5.00 6.50 26.00
  vertex 5.00 0.50 29.00
  vertex 5.00 6.50 29.00
 endloop
endfacet
endsolid tupan
