0
SECTION
2
ENTITIES
0
LINE
8
0
10
0
20
0
11
34.0
21
0
0
LINE
8
0
10
34.0
20
0
11
34.0
21
32.0
0
LINE
8
0
10
34.0
20
32.0
11
0
21
32.0
0
LINE
8
0
10
0
20
32.0
11
0
21
0
0
LINE
8
0
10
1.0
20
16.0
11
4.0
21
16.0
0
LINE
8
0
10
4.0
20
16.0
11
4.0
21
26.0
0
LINE
8
0
10
4.0
20
26.0
11
1.0
21
26.0
0
LINE
8
0
10
1.0
20
26.0
11
1.0
21
16.0
0
TEXT
8
0
10
1.3
20
16.3
40
0.9
1
ventoinhas
0
LINE
8
0
10
5.0
20
8.0
11
21.0
21
8.0
0
LINE
8
0
10
21.0
20
8.0
11
21.0
21
20.0
0
LINE
8
0
10
21.0
20
20.0
11
5.0
21
20.0
0
LINE
8
0
10
5.0
20
20.0
11
5.0
21
8.0
0
TEXT
8
0
10
5.3
20
8.3
40
0.9
1
leito CaCl2
0
LINE
8
0
10
10.0
20
20.0
11
20.0
21
20.0
0
LINE
8
0
10
20.0
20
20.0
11
20.0
21
32.0
0
LINE
8
0
10
20.0
20
32.0
11
10.0
21
32.0
0
LINE
8
0
10
10.0
20
32.0
11
10.0
21
20.0
0
TEXT
8
0
10
10.3
20
20.3
40
0.9
1
vidraria
0
LINE
8
0
10
8.0
20
6.0
11
24.0
21
6.0
0
LINE
8
0
10
24.0
20
6.0
11
24.0
21
8.0
0
LINE
8
0
10
24.0
20
8.0
11
8.0
21
8.0
0
LINE
8
0
10
8.0
20
8.0
11
8.0
21
6.0
0
TEXT
8
0
10
8.3
20
6.3
40
0.9
1
solenoide
0
LINE
8
0
10
22.0
20
8.0
11
27.0
21
8.0
0
LINE
8
0
10
27.0
20
8.0
11
27.0
21
17.0
0
LINE
8
0
10
27.0
20
17.0
11
22.0
21
17.0
0
LINE
8
0
10
22.0
20
17.0
11
22.0
21
8.0
0
TEXT
8
0
10
22.3
20
8.3
40
0.9
1
filtro mineral
0
LINE
8
0
10
27.0
20
4.0
11
39.0
21
4.0
0
LINE
8
0
10
39.0
20
4.0
11
39.0
21
12.0
0
LINE
8
0
10
39.0
20
12.0
11
27.0
21
12.0
0
LINE
8
0
10
27.0
20
12.0
11
27.0
21
4.0
0
TEXT
8
0
10
27.3
20
4.3
40
0.9
1
bacia
0
LINE
8
0
10
5.0
20
26.0
11
17.0
21
26.0
0
LINE
8
0
10
17.0
20
26.0
11
17.0
21
29.0
0
LINE
8
0
10
17.0
20
29.0
11
5.0
21
29.0
0
LINE
8
0
10
5.0
20
29.0
11
5.0
21
26.0
0
TEXT
8
0
10
5.3
20
26.3
40
0.9
1
arduino e sensores
0
TEXT
8
0
10
0.5
20
33.5
40
1.2
1
TUPAN - vista frontal (cm)
0
LINE
8
0
10
0
20
-1.5
11
34.0
21
-1.5
0
ENDSEC
0
EOF
